PathFileType	4	(X/Y/Z)	/Users/itak/Documents/Research/Walk-IL/dataset/trc/00432_00167.trc
DataRate	CameraRate	NumFrames	NumMarkers	Units	OrigDataRate	OrigDataStartFrame	OrigNumFrames
100.000000	100.000000	4	53	mm	100.000000	346	693
Frame#	Time	RPSI			LPSI			L3			STRN			T10			C7			CLAV			RBAK			LBAK			LSHO			LUPA			LAEL			LAOL			LWTS			LWPS			LFRA			LIFD			LHPS			LHTS			RSHO			RUPA			RAEL			RAOL			RWTS			RWPS			RFRA			RIFD			RHTS			RHPS			RBHD			LFHD			RFHD			LBHD			LHIP			RHIP			RASI			LASI			LKNE			LTHI			LANK			LTIP			LTOE			LMT1			LMT5			LHEE			RKNE			RTHI			RANK			RTIP			RTOE			RMT1			RMT5			RHEE			
		X1	Y1	Z1	X2	Y2	Z2	X3	Y3	Z3	X4	Y4	Z4	X5	Y5	Z5	X6	Y6	Z6	X7	Y7	Z7	X8	Y8	Z8	X9	Y9	Z9	X10	Y10	Z10	X11	Y11	Z11	X12	Y12	Z12	X13	Y13	Z13	X14	Y14	Z14	X15	Y15	Z15	X16	Y16	Z16	X17	Y17	Z17	X18	Y18	Z18	X19	Y19	Z19	X20	Y20	Z20	X21	Y21	Z21	X22	Y22	Z22	X23	Y23	Z23	X24	Y24	Z24	X25	Y25	Z25	X26	Y26	Z26	X27	Y27	Z27	X28	Y28	Z28	X29	Y29	Z29	X30	Y30	Z30	X31	Y31	Z31	X32	Y32	Z32	X33	Y33	Z33	X34	Y34	Z34	X35	Y35	Z35	X36	Y36	Z36	X37	Y37	Z37	X38	Y38	Z38	X39	Y39	Z39	X40	Y40	Z40	X41	Y41	Z41	X42	Y42	Z42	X43	Y43	Z43	X44	Y44	Z44	X45	Y45	Z45	X46	Y46	Z46	X47	Y47	Z47	X48	Y48	Z48	X49	Y49	Z49	X50	Y50	Z50	X51	Y51	Z51	X52	Y52	Z52	X53	Y53	Z53	

347	3.46	-55.38464736938477	952.3397827148438	201.0637054443359	30.30753135681152	957.7640991210938	86.22510528564453	-10.61525440216064	1056.058349609375	158.0116424560547	219.1596374511719	1249.196166992188	302.9377136230469	-21.20685768127441	1180.382080078125	141.7166748046875	32.81747817993164	1448.029907226562	182.9968414306641	192.2407379150391	1363.1640625	277.8128356933594	-75.14102935791016	1331.970092773438	231.2119445800781	64.57358551025391	1398.590698242188	82.41519165039062	191.9156951904297	1418.178466796875	81.67163848876953	266.6106262207031	1308.678344726562	9.114980697631836	376.0261535644531	1123.39306640625	29.67611503601074	287.3785705566406	1069.545776367188	30.45375823974609	483.1104736328125	977.8991088867188	155.7114868164062	493.7801513671875	947.3951416015625	89.30345153808594	430.3058776855469	1055.270629882812	53.72407531738281	561.771240234375	833.1201171875	194.2542419433594	533.2727661132812	880.7174682617188	113.0682601928711	539.0248413085938	908.9855346679688	177.6381988525391	3.814202785491943	1423.010620117188	357.4381408691406	-50.82808303833008	1364.950317382812	416.6226196289062	-59.56711959838867	1084.577026367188	491.6276550292969	-84.47232818603516	1049.917114257812	437.59619140625	120.4059829711914	950.179443359375	525.7410888671875	49.87748718261719	904.9754638671875	554.0365600585938	-39.70272064208984	1032.500366210938	511.2103271484375	187.3957366943359	811.720458984375	567.085205078125	170.1953277587891	870.3258666992188	564.3165283203125	102.9707641601562	837.73583984375	577.4672241210938	72.33546447753906	1646.8681640625	299.7732849121094	269.8137512207031	1648.279052734375	238.6867218017578	200.8284759521484	1653.467407226562	349.7293395996094	153.2512817382812	1646.267211914062	140.1215515136719	211.3611907958984	852.3771362304688	77.50541687011719	-38.15990447998047	855.7517700195312	393.32958984375	80.56289672851562	901.3916015625	390.642578125	242.8742218017578	896.447021484375	194.6149597167969	206.6336059570312	430.8082275390625	166.8434600830078	233.5725860595703	584.0902099609375	139.7100219726562	119.1170654296875	29.55173110961914	147.6523284912109	194.400146484375	273.5194702148438	166.8269348144531	235.4320831298828	39.12405014038086	351.3025817871094	164.5048217773438	48.064208984375	320.1697998046875	240.0575408935547	39.23165512084961	235.3013610839844	46.68810272216797	31.47090148925781	147.3055267333984	63.14065551757812	485.620849609375	467.3995971679688	15.84812164306641	734.0387573242188	448.8947448730469	-164.9497528076172	170.4183654785156	282.8837585449219	-9.120966911315918	363.6765441894531	426.3047790527344	7.309045791625977	53.41508483886719	337.6114501953125	-15.61766719818115	91.29192352294922	277.9400939941406	-91.15345001220703	88.07379150390625	351.4039001464844	-183.2476806640625	212.9149017333984	216.3513488769531	
348	3.47	-50.22829437255859	951.7200317382812	204.8801879882812	35.16790390014648	957.086181640625	89.75107574462891	-5.698683738708496	1055.69775390625	161.1837463378906	224.0212554931641	1249.334228515625	305.5227355957031	-16.31478691101074	1179.993530273438	144.7643280029297	37.21350479125977	1447.802368164062	185.8251342773438	196.8165893554688	1363.256713867188	280.4535827636719	-70.51647186279297	1331.526611328125	234.127685546875	68.93002319335938	1398.395385742188	85.20250701904297	196.1459350585938	1418.338623046875	84.33300018310547	271.1733703613281	1309.164428710938	11.77344608306885	381.9913330078125	1124.937744140625	32.90618515014648	293.9461364746094	1070.233642578125	34.33992385864258	491.1033935546875	982.1242065429688	160.2000579833984	501.8318786621094	950.86767578125	94.13861846923828	437.0592956542969	1057.663452148438	57.50954437255859	571.5701293945312	838.7360229492188	200.2303771972656	542.1378784179688	884.962158203125	118.5696182250977	547.9264526367188	914.1357421875	182.7249603271484	8.357437133789062	1422.759887695312	360.193603515625	-46.14459228515625	1364.710327148438	419.4591979980469	-54.01657485961914	1085.019775390625	495.4931335449219	-78.63339996337891	1049.539916992188	441.7951965332031	128.3107757568359	954.0394287109375	529.7965087890625	58.86078262329102	907.943603515625	559.1078491210938	-33.25032043457031	1033.47900390625	515.4580688476562	198.0977630615234	817.25634765625	571.9698486328125	179.8679351806641	875.5107421875	568.78759765625	113.3364868164062	841.8674926757812	582.8082275390625	77.05622863769531	1646.628662109375	303.0877380371094	274.5115661621094	1647.947021484375	242.0643005371094	205.5517120361328	1652.959594726562	353.0947875976562	157.9560241699219	1646.3037109375	143.4671630859375	216.0654754638672	851.9349365234375	80.61183929443359	-31.73659324645996	855.980712890625	397.5767822265625	86.72456359863281	902.0443115234375	393.9744262695312	248.4334869384766	896.317626953125	197.4911041259766	209.6637115478516	430.2216186523438	169.3603363037109	237.3137664794922	583.6044921875	142.7969665527344	119.0306549072266	29.74251556396484	147.8934478759766	196.2651519775391	272.9295349121094	168.5382843017578	235.3292541503906	38.91632843017578	351.6365966796875	164.4806365966797	47.84215927124023	320.3840026855469	240.0486450195312	39.26637649536133	235.4108428955078	46.5374870300293	31.69588661193848	147.4283905029297	74.0408935546875	486.7185668945312	473.0147094726562	23.75665855407715	734.8255004882812	453.5345458984375	-147.4725341796875	162.7139892578125	295.7142639160156	4.123198986053467	362.3421630859375	434.3135070800781	28.62687110900879	52.34677886962891	353.0808715820312	4.344304084777832	87.86314392089844	292.3913879394531	-70.88402557373047	84.44425201416016	366.0686340332031	-167.2955169677734	202.7543640136719	228.1576538085938	
349	3.48	-45.0919189453125	951.0601196289062	208.6896057128906	40.05401992797852	956.368408203125	93.31758117675781	-0.7796263694763184	1055.282470703125	164.3806610107422	228.8841552734375	1249.405151367188	308.1703186035156	-11.42066287994385	1179.55615234375	147.8470153808594	41.6124267578125	1447.511474609375	188.728271484375	201.3917694091797	1363.286499023438	283.1495361328125	-65.89588165283203	1331.024291992188	237.1082153320312	73.28097534179688	1398.15185546875	88.06060791015625	200.3899688720703	1418.432983398438	87.03865814208984	275.6377868652344	1309.523071289062	14.41725730895996	387.5969543457031	1126.199462890625	35.96615219116211	300.1031188964844	1070.749389648438	38.01169204711914	498.518310546875	986.0335083007812	164.5535125732422	509.3360290527344	954.0233154296875	98.85194396972656	443.373291015625	1059.744750976562	61.13928985595703	580.6710205078125	844.0512084960938	206.1295776367188	550.4044799804688	888.9027099609375	123.9720153808594	556.1698608398438	918.9752197265625	187.7118988037109	12.9166088104248	1422.419799804688	363.0227661132812	-41.43733596801758	1364.371459960938	422.3671264648438	-48.52917861938477	1085.332763671875	499.3331604003906	-72.94011688232422	1049.116943359375	445.97998046875	135.8405151367188	957.4349365234375	533.7071533203125	67.37779998779297	910.5706787109375	563.9724731445312	-26.96146202087402	1034.28466796875	519.6268310546875	208.1156311035156	822.2207641601562	576.592041015625	188.9636840820312	880.1432495117188	573.0460815429688	123.099609375	845.5723876953125	587.8832397460938	81.73102569580078	1646.312133789062	306.4612731933594	279.1710510253906	1647.588256835938	245.4756011962891	210.2522125244141	1652.417724609375	356.4999084472656	162.6208648681641	1646.2841796875	146.8553009033203	220.8462982177734	851.4649047851562	83.73361206054688	-25.42514610290527	856.1753540039062	401.8034057617188	92.79814910888672	902.6326293945312	397.3356018066406	253.9571075439453	896.1381225585938	200.4686431884766	212.6682434082031	429.6040954589844	171.8873291015625	241.0650787353516	583.0859375	145.90234375	118.9386520385742	29.92574882507324	148.1181488037109	198.1192474365234	272.3244018554688	170.2566528320312	235.2067413330078	38.73561859130859	351.9617614746094	164.4413604736328	47.62221527099609	320.5945129394531	240.0287933349609	39.32384872436523	235.5290679931641	46.43413925170898	31.9334545135498	147.518798828125	84.77346038818359	487.7746887207031	478.5004577636719	31.51465606689453	735.5606689453125	458.1275939941406	-129.6178283691406	154.9160461425781	308.8133544921875	17.33959197998047	360.9944763183594	442.3321533203125	50.10519790649414	51.47536468505859	368.7464599609375	24.52573394775391	84.49983215332031	307.0706787109375	-50.38203430175781	80.90895843505859	380.989013671875	-150.94140625	192.3668212890625	240.3283538818359	
350	3.49	-39.97050857543945	950.3615112304688	212.4860687255859	44.97121429443359	955.6167602539062	96.91460418701172	4.140171527862549	1054.811767578125	167.6078796386719	233.7499847412109	1249.40869140625	310.8874206542969	-6.52190637588501	1179.066528320312	150.9747161865234	46.01913452148438	1447.158325195312	191.7074890136719	205.9727478027344	1363.251220703125	285.9077453613281	-61.27178573608398	1330.461791992188	240.1525268554688	77.6356201171875	1397.857666015625	90.99190521240234	204.6520233154297	1418.460083007812	89.79220581054688	280.0119018554688	1309.750732421875	17.0516414642334	392.853271484375	1127.165283203125	38.8583984375	305.8381652832031	1071.071899414062	41.47451782226562	505.3516540527344	989.5972900390625	168.7715301513672	516.3019409179688	956.8421630859375	103.4449157714844	449.2597045898438	1061.4990234375	64.61647033691406	589.067626953125	849.0313720703125	211.9489135742188	558.0853271484375	892.5106811523438	129.2761535644531	563.750732421875	923.4688110351562	192.6032562255859	17.48997116088867	1421.996826171875	365.9236145019531	-36.71664047241211	1363.93994140625	425.3394775390625	-43.11120223999023	1085.506469726562	503.1348266601562	-67.38803100585938	1048.643432617188	450.1246032714844	143.0004730224609	960.337158203125	537.4945068359375	75.42189025878906	912.8164672851562	568.6324462890625	-20.8415584564209	1034.898803710938	523.7041625976562	217.4583435058594	826.5613403320312	580.9844360351562	197.4832153320312	884.1768188476562	577.1207885742188	132.2423248291016	848.7963256835938	592.7085571289062	86.37094116210938	1645.92578125	309.8919067382812	283.8060913085938	1647.199951171875	248.9245300292969	214.9348602294922	1651.84130859375	359.9489135742188	167.2575378417969	1646.2138671875	150.2918548583984	225.7084350585938	850.9678955078125	86.84995269775391	-19.22109031677246	856.334228515625	406.0047912597656	98.78169250488281	903.1543579101562	400.7304077148438	259.4324645996094	895.8983764648438	203.5307769775391	215.6383209228516	428.9627685546875	174.3928833007812	244.809326171875	582.5369873046875	148.9876251220703	118.8426666259766	30.09590530395508	148.3154907226562	199.9501037597656	271.7095336914062	171.9544525146484	235.0732574462891	38.57976150512695	352.2697143554688	164.3919525146484	47.40784454345703	320.794189453125	240.0038299560547	39.40130233764648	235.6513824462891	46.3748664855957	32.1649284362793	147.5910797119141	95.33112335205078	488.7781677246094	483.8558959960938	39.11586761474609	736.2461547851562	462.6788330078125	-111.3719482421875	147.0703735351562	322.1658935546875	30.52543067932129	359.6388549804688	450.3486022949219	71.70626068115234	50.84193420410156	384.5911865234375	44.91209030151367	81.24723815917969	321.9605712890625	-29.66822624206543	77.52004241943359	396.1344604492188	-134.1590728759766	181.8274688720703	252.8410797119141	
